<?xml version="1.0" encoding="UTF-8" ?>
<!DOCTYPE svg PUBLIC "-//W3C//DTD SVG 1.1//EN" "http://www.w3.org/Graphics/SVG/1.1/DTD/svg11.dtd">
<svg width="444px" height="442px" viewBox="0 0 444 442" version="1.1" xmlns="http://www.w3.org/2000/svg">
<path fill="#7030a0" stroke="#7030a0" stroke-width="0.09375" opacity="1.00" d=" M 208.0 1.3 C 220.7 0.3 233.4 1.4 246.1 2.2 C 261.7 3.8 277.1 7.7 292.0 12.8 C 307.6 17.8 322.3 25.3 336.4 33.7 C 355.7 45.8 373.2 60.7 388.0 78.0 C 408.2 101.7 423.6 129.7 432.1 159.6 C 434.9 170.2 437.7 180.9 439.0 191.8 C 441.1 205.4 440.9 219.3 440.7 233.1 C 440.6 241.6 439.0 250.0 437.7 258.3 C 434.9 276.2 429.5 293.7 422.2 310.2 C 415.6 325.9 406.5 340.6 396.3 354.3 C 363.5 397.9 314.0 428.8 260.2 438.3 C 248.2 440.8 235.8 441.2 223.6 442.0 L 220.4 442.0 C 216.3 441.8 212.2 441.5 208.1 441.3 C 193.1 440.7 178.3 438.0 163.9 434.2 C 165.9 434.3 167.9 434.2 169.9 434.1 C 170.4 426.4 170.1 418.7 170.1 411.0 C 170.2 372.0 170.0 333.0 170.3 294.1 C 182.0 299.5 193.8 305.2 206.6 308.0 C 218.8 310.4 231.4 311.2 243.8 309.2 C 255.9 307.9 267.5 303.8 278.1 298.1 C 293.6 289.7 306.9 277.5 317.7 263.7 C 333.4 243.4 341.8 217.7 341.7 192.1 C 342.3 172.8 337.6 153.4 328.7 136.3 C 313.2 107.7 286.2 84.8 254.4 76.6 C 244.7 73.7 234.5 73.5 224.5 73.3 C 210.0 72.7 195.3 75.1 181.8 80.7 C 158.4 89.6 137.9 106.1 124.0 127.0 C 119.9 133.4 116.4 140.2 113.2 147.2 C 109.5 155.2 108.8 164.1 107.4 172.8 C 104.9 187.7 104.3 202.9 104.6 218.0 C 104.6 281.5 104.8 344.9 104.5 408.4 C 59.2 380.5 24.6 335.5 9.5 284.5 C 6.3 273.7 4.0 262.6 2.3 251.5 C 0.8 241.9 0.8 232.2 0.0 222.6 L 0.0 219.4 C 0.8 208.9 0.9 198.3 2.7 187.9 C 6.7 162.0 15.3 136.9 28.0 114.0 C 46.1 81.5 72.6 53.8 104.1 34.1 C 135.3 14.8 171.2 2.8 208.0 1.3 Z" />
<path fill="#ffffff" stroke="#ffffff" stroke-width="0.09375" opacity="1.00" d=" M 181.8 80.7 C 195.3 75.1 210.0 72.7 224.5 73.3 C 234.5 73.5 244.7 73.7 254.4 76.6 C 286.2 84.8 313.2 107.7 328.7 136.3 C 337.6 153.4 342.3 172.8 341.7 192.1 C 341.8 217.7 333.4 243.4 317.7 263.7 C 306.9 277.5 293.6 289.7 278.1 298.1 C 267.5 303.8 255.9 307.9 243.8 309.2 C 231.4 311.2 218.8 310.4 206.6 308.0 C 193.8 305.2 182.0 299.5 170.3 294.1 C 170.0 333.0 170.2 372.0 170.1 411.0 C 170.1 418.7 170.4 426.4 169.9 434.1 C 167.9 434.2 165.9 434.3 163.9 434.2 C 143.0 428.7 122.9 420.0 104.5 408.4 C 104.8 344.9 104.6 281.5 104.6 218.0 C 104.3 202.9 104.9 187.7 107.4 172.8 C 108.8 164.1 109.5 155.2 113.2 147.2 C 116.4 140.2 119.9 133.4 124.0 127.0 C 137.9 106.1 158.4 89.6 181.8 80.7 M 213.5 137.8 C 206.2 139.0 199.5 142.4 193.6 146.7 C 184.6 154.0 176.5 163.3 172.9 174.5 C 169.4 186.8 170.0 200.1 174.1 212.1 C 180.1 227.1 192.8 239.6 208.4 244.2 C 217.3 246.0 226.6 246.8 235.5 245.2 C 255.2 240.7 270.5 223.7 275.1 204.4 C 277.2 193.2 277.0 181.2 272.4 170.7 C 268.2 160.7 260.9 152.2 252.2 145.8 C 245.9 141.5 238.7 138.1 231.0 137.7 C 225.2 137.4 219.3 137.1 213.5 137.8 Z" />
<path fill="#7030a0" stroke="#7030a0" stroke-width="0.09375" opacity="1.00" d=" M 213.5 137.8 C 219.3 137.1 225.2 137.4 231.0 137.7 C 238.7 138.1 245.9 141.5 252.2 145.8 C 260.9 152.2 268.2 160.7 272.4 170.7 C 277.0 181.2 277.2 193.2 275.1 204.4 C 270.5 223.7 255.2 240.7 235.5 245.2 C 226.6 246.8 217.3 246.0 208.4 244.2 C 192.8 239.6 180.1 227.1 174.1 212.1 C 170.0 200.1 169.4 186.8 172.9 174.5 C 176.5 163.3 184.6 154.0 193.6 146.7 C 199.5 142.4 206.2 139.0 213.5 137.8 M 214.5 156.8 C 206.2 159.3 198.7 164.6 193.9 171.9 C 188.7 179.8 186.9 189.7 188.2 199.0 C 190.3 211.2 199.3 221.7 210.7 226.4 C 216.4 229.0 222.9 229.2 229.1 228.7 C 234.5 228.3 239.5 225.9 244.1 223.1 C 250.4 219.4 254.9 213.5 258.0 207.0 C 261.4 200.0 261.5 191.9 260.3 184.4 C 257.9 173.7 250.4 164.1 240.5 159.4 C 232.4 155.9 223.1 154.4 214.5 156.8 Z" />
<path fill="#ffffff" stroke="#ffffff" stroke-width="0.09375" opacity="1.00" d=" M 214.5 156.8 C 223.1 154.4 232.4 155.9 240.5 159.4 C 250.4 164.1 257.9 173.7 260.3 184.4 C 261.5 191.9 261.4 200.0 258.0 207.0 C 254.9 213.5 250.4 219.4 244.1 223.1 C 239.5 225.9 234.5 228.3 229.1 228.7 C 222.9 229.2 216.4 229.0 210.7 226.4 C 199.3 221.7 190.3 211.2 188.2 199.0 C 186.9 189.7 188.7 179.8 193.9 171.9 C 198.7 164.6 206.2 159.3 214.5 156.8 Z" />
</svg>
